<svg width="105" height="29" viewBox="0 0 105 29" fill="none" xmlns="http://www.w3.org/2000/svg">
<path d="M94.5884 14.7839L104.048 28.5H0.5V0.5H104.048L94.5884 14.2161L94.3926 14.5L94.5884 14.7839Z" fill="#F5F5F5" stroke="#755FBB"/>
<path d="M16.45 8.5H17.95L14.845 13.495L18.175 19H16.675L14.2 14.605L11.65 19H10.15L13.57 13.495L10.525 8.5H12.025L14.215 12.385L16.45 8.5ZM20.7203 12.1V16.57L25.2953 11.575V19H24.0953V14.53L19.5203 19.525V12.1H20.7203ZM26.5691 12.1H30.6191V13.225H29.1941V19H27.9941V13.225H26.5691V12.1ZM41.9453 12.1V19H40.7453V13.225H37.5203V19H36.3203V12.1H41.9453ZM45.3262 22.3H44.1262V12.1H45.3262V13.285C45.5762 12.855 45.9012 12.525 46.3012 12.295C46.7112 12.065 47.1712 11.95 47.6812 11.95C48.3112 11.95 48.8812 12.095 49.3912 12.385C49.9112 12.675 50.3262 13.09 50.6362 13.63C50.9462 14.16 51.1012 14.8 51.1012 15.55C51.1012 16.29 50.9462 16.93 50.6362 17.47C50.3262 18.01 49.9112 18.425 49.3912 18.715C48.8812 19.005 48.3112 19.15 47.6812 19.15C47.1712 19.15 46.7112 19.035 46.3012 18.805C45.9012 18.575 45.5762 18.245 45.3262 17.815V22.3ZM49.8862 15.55C49.8862 15.02 49.7762 14.57 49.5562 14.2C49.3462 13.83 49.0612 13.55 48.7012 13.36C48.3512 13.17 47.9612 13.075 47.5312 13.075C47.1812 13.075 46.8362 13.17 46.4962 13.36C46.1562 13.55 45.8762 13.83 45.6562 14.2C45.4362 14.57 45.3262 15.02 45.3262 15.55C45.3262 16.08 45.4362 16.53 45.6562 16.9C45.8762 17.27 46.1562 17.55 46.4962 17.74C46.8362 17.93 47.1812 18.025 47.5312 18.025C47.9612 18.025 48.3512 17.93 48.7012 17.74C49.0612 17.55 49.3462 17.27 49.5562 16.9C49.7762 16.53 49.8862 16.08 49.8862 15.55ZM52.1559 15.55C52.1559 14.85 52.3109 14.23 52.6209 13.69C52.9409 13.15 53.3709 12.725 53.9109 12.415C54.4509 12.105 55.0559 11.95 55.7259 11.95C56.4059 11.95 57.0109 12.105 57.5409 12.415C58.0809 12.725 58.5059 13.15 58.8159 13.69C59.1359 14.23 59.2959 14.85 59.2959 15.55C59.2959 16.24 59.1359 16.86 58.8159 17.41C58.5059 17.95 58.0809 18.375 57.5409 18.685C57.0109 18.995 56.4059 19.15 55.7259 19.15C55.0559 19.15 54.4509 18.995 53.9109 18.685C53.3709 18.375 52.9409 17.95 52.6209 17.41C52.3109 16.86 52.1559 16.24 52.1559 15.55ZM53.3709 15.55C53.3709 16.03 53.4709 16.455 53.6709 16.825C53.8809 17.195 54.1609 17.49 54.5109 17.71C54.8709 17.92 55.2759 18.025 55.7259 18.025C56.1759 18.025 56.5759 17.92 56.9259 17.71C57.2859 17.49 57.5659 17.195 57.7659 16.825C57.9759 16.455 58.0809 16.03 58.0809 15.55C58.0809 15.07 57.9759 14.645 57.7659 14.275C57.5659 13.895 57.2859 13.6 56.9259 13.39C56.5759 13.18 56.1759 13.075 55.7259 13.075C55.2759 13.075 54.8709 13.18 54.5109 13.39C54.1609 13.6 53.8809 13.895 53.6709 14.275C53.4709 14.645 53.3709 15.07 53.3709 15.55ZM67.0223 19H60.9473V20.35H59.6723V17.875H60.9023L63.9473 11.575L66.9923 17.875H68.2223V20.35H67.0223V19ZM63.9473 14.17L62.2373 17.875H65.6573L63.9473 14.17ZM70.5664 13.72L69.9814 12.805C70.2414 12.615 70.5914 12.425 71.0314 12.235C71.4714 12.045 72.0014 11.95 72.6214 11.95C73.4114 11.95 74.0514 12.135 74.5414 12.505C75.0314 12.865 75.2764 13.38 75.2764 14.05V19H74.0764V18.01C73.8664 18.38 73.5514 18.665 73.1314 18.865C72.7114 19.055 72.2414 19.15 71.7214 19.15C71.2914 19.15 70.8964 19.07 70.5364 18.91C70.1764 18.75 69.8864 18.515 69.6664 18.205C69.4564 17.885 69.3514 17.49 69.3514 17.02C69.3514 16.29 69.6114 15.725 70.1314 15.325C70.6614 14.915 71.3814 14.71 72.2914 14.71C72.6914 14.71 73.0414 14.76 73.3414 14.86C73.6414 14.96 73.8864 15.075 74.0764 15.205V14.05C74.0764 13.7 73.9264 13.44 73.6264 13.27C73.3364 13.09 73.0014 13 72.6214 13C72.1314 13 71.7064 13.09 71.3464 13.27C70.9964 13.45 70.7364 13.6 70.5664 13.72ZM70.5664 16.975C70.5664 17.345 70.7064 17.625 70.9864 17.815C71.2764 17.995 71.6214 18.085 72.0214 18.085C72.6214 18.085 73.1114 17.95 73.4914 17.68C73.8814 17.4 74.0764 16.94 74.0764 16.3V16.03C73.5664 15.76 72.9914 15.625 72.3514 15.625C71.7414 15.625 71.2914 15.745 71.0014 15.985C70.7114 16.225 70.5664 16.555 70.5664 16.975ZM77.9816 12.1L80.6816 14.665V12.1H81.8066V14.665L84.5066 12.1H86.0066L82.8566 15.1L86.3066 19H84.8066L81.8066 15.325V19H80.6816V15.325L77.6816 19H76.1816L79.6316 15.1L76.4816 12.1H77.9816Z" fill="#755FBB"/>
</svg>
