<svg width="77" height="29" viewBox="0 0 77 29" fill="none" xmlns="http://www.w3.org/2000/svg">
<path d="M66.5884 14.7839L76.0478 28.5H0.5V0.5H76.0478L66.5884 14.2161L66.3926 14.5L66.5884 14.7839Z" fill="#F5F5F5" stroke="#C82A2A"/>
<path d="M11.95 13.75C11.95 14.56 12.13 15.275 12.49 15.895C12.86 16.515 13.34 17 13.93 17.35C14.52 17.7 15.16 17.875 15.85 17.875C16.59 17.875 17.245 17.73 17.815 17.44C18.385 17.15 18.855 16.775 19.225 16.315V17.995C18.785 18.385 18.305 18.675 17.785 18.865C17.265 19.055 16.62 19.15 15.85 19.15C15.12 19.15 14.435 19.02 13.795 18.76C13.165 18.49 12.61 18.115 12.13 17.635C11.65 17.145 11.275 16.57 11.005 15.91C10.735 15.25 10.6 14.53 10.6 13.75C10.6 12.97 10.735 12.25 11.005 11.59C11.275 10.93 11.65 10.36 12.13 9.88C12.61 9.39 13.165 9.015 13.795 8.755C14.435 8.485 15.12 8.35 15.85 8.35C16.62 8.35 17.265 8.445 17.785 8.635C18.305 8.825 18.785 9.115 19.225 9.505V11.185C18.855 10.715 18.385 10.34 17.815 10.06C17.245 9.77 16.59 9.625 15.85 9.625C15.16 9.625 14.52 9.8 13.93 10.15C13.34 10.5 12.86 10.985 12.49 11.605C12.13 12.215 11.95 12.93 11.95 13.75ZM21.3186 12.1H22.5186V14.515L25.0686 12.1H26.5686L23.5686 14.95L26.8686 19H25.3686L22.5186 15.505V19H21.3186V12.1ZM29.275 12.1V16.57L33.85 11.575V19H32.65V14.53L28.075 19.525V12.1H29.275ZM42.9988 19H36.9238V20.35H35.6488V17.875H36.8788L39.9238 11.575L42.9688 17.875H44.1988V20.35H42.9988V19ZM39.9238 14.17L38.2138 17.875H41.6338L39.9238 14.17ZM45.9279 12.1H47.1279V14.515L49.6779 12.1H51.1779L48.1779 14.95L51.4779 19H49.9779L47.1279 15.505V19H45.9279V12.1ZM53.1494 13.72L52.5644 12.805C52.8244 12.615 53.1744 12.425 53.6144 12.235C54.0544 12.045 54.5844 11.95 55.2044 11.95C55.9944 11.95 56.6344 12.135 57.1244 12.505C57.6144 12.865 57.8594 13.38 57.8594 14.05V19H56.6594V18.01C56.4494 18.38 56.1344 18.665 55.7144 18.865C55.2944 19.055 54.8244 19.15 54.3044 19.15C53.8744 19.15 53.4794 19.07 53.1194 18.91C52.7594 18.75 52.4694 18.515 52.2494 18.205C52.0394 17.885 51.9344 17.49 51.9344 17.02C51.9344 16.29 52.1944 15.725 52.7144 15.325C53.2444 14.915 53.9644 14.71 54.8744 14.71C55.2744 14.71 55.6244 14.76 55.9244 14.86C56.2244 14.96 56.4694 15.075 56.6594 15.205V14.05C56.6594 13.7 56.5094 13.44 56.2094 13.27C55.9194 13.09 55.5844 13 55.2044 13C54.7144 13 54.2894 13.09 53.9294 13.27C53.5794 13.45 53.3194 13.6 53.1494 13.72ZM53.1494 16.975C53.1494 17.345 53.2894 17.625 53.5694 17.815C53.8594 17.995 54.2044 18.085 54.6044 18.085C55.2044 18.085 55.6944 17.95 56.0744 17.68C56.4644 17.4 56.6594 16.94 56.6594 16.3V16.03C56.1494 15.76 55.5744 15.625 54.9344 15.625C54.3244 15.625 53.8744 15.745 53.5844 15.985C53.2944 16.225 53.1494 16.555 53.1494 16.975Z" fill="#C82A2A"/>
</svg>
