<svg width="85" height="29" viewBox="0 0 85 29" fill="none" xmlns="http://www.w3.org/2000/svg">
<path d="M74.5884 14.7839L84.0478 28.5H0.5V0.5H84.0478L74.5884 14.2161L74.3926 14.5L74.5884 14.7839Z" fill="#F5F5F5" stroke="#BB8C5F"/>
<path d="M11.2 8.5H12.475V12.7H18.25V8.5H19.525V19H18.25V13.9H12.475V19H11.2V8.5ZM21.2477 15.55C21.2477 14.85 21.4027 14.23 21.7127 13.69C22.0327 13.15 22.4627 12.725 23.0027 12.415C23.5427 12.105 24.1477 11.95 24.8177 11.95C25.4977 11.95 26.1027 12.105 26.6327 12.415C27.1727 12.725 27.5977 13.15 27.9077 13.69C28.2277 14.23 28.3877 14.85 28.3877 15.55C28.3877 16.24 28.2277 16.86 27.9077 17.41C27.5977 17.95 27.1727 18.375 26.6327 18.685C26.1027 18.995 25.4977 19.15 24.8177 19.15C24.1477 19.15 23.5427 18.995 23.0027 18.685C22.4627 18.375 22.0327 17.95 21.7127 17.41C21.4027 16.86 21.2477 16.24 21.2477 15.55ZM22.4627 15.55C22.4627 16.03 22.5627 16.455 22.7627 16.825C22.9727 17.195 23.2527 17.49 23.6027 17.71C23.9627 17.92 24.3677 18.025 24.8177 18.025C25.2677 18.025 25.6677 17.92 26.0177 17.71C26.3777 17.49 26.6577 17.195 26.8577 16.825C27.0677 16.455 27.1727 16.03 27.1727 15.55C27.1727 15.07 27.0677 14.645 26.8577 14.275C26.6577 13.895 26.3777 13.6 26.0177 13.39C25.6677 13.18 25.2677 13.075 24.8177 13.075C24.3677 13.075 23.9627 13.18 23.6027 13.39C23.2527 13.6 22.9727 13.895 22.7627 14.275C22.5627 14.645 22.4627 15.07 22.4627 15.55ZM30.0361 12.1H32.5861C33.0161 12.1 33.4061 12.165 33.7561 12.295C34.1161 12.415 34.4061 12.615 34.6261 12.895C34.8461 13.165 34.9561 13.525 34.9561 13.975C34.9561 14.365 34.8511 14.685 34.6411 14.935C34.4311 15.185 34.1561 15.375 33.8161 15.505C34.2461 15.595 34.5911 15.765 34.8511 16.015C35.1211 16.265 35.2561 16.635 35.2561 17.125C35.2561 17.645 35.0811 18.09 34.7311 18.46C34.3911 18.82 33.8261 19 33.0361 19H30.0361V12.1ZM32.5861 13.15H31.2361V14.995H32.5861C32.9461 14.995 33.2311 14.905 33.4411 14.725C33.6511 14.545 33.7561 14.32 33.7561 14.05C33.7561 13.78 33.6511 13.565 33.4411 13.405C33.2311 13.235 32.9461 13.15 32.5861 13.15ZM32.7361 16.03H31.2361V17.95H32.7361C33.1861 17.95 33.5161 17.855 33.7261 17.665C33.9461 17.475 34.0561 17.245 34.0561 16.975C34.0561 16.705 33.9461 16.48 33.7261 16.3C33.5161 16.12 33.1861 16.03 32.7361 16.03ZM38.108 12.1V16.57L42.683 11.575V19H41.483V14.53L36.908 19.525V12.1H38.108ZM45.0068 12.1H46.2068V14.8H50.0318V12.1H51.2318V19H50.0318V15.925H46.2068V19H45.0068V12.1ZM53.4133 12.1H54.6133V14.515L57.1633 12.1H58.6633L55.6633 14.95L58.9633 19H57.4633L54.6133 15.505V19H53.4133V12.1ZM60.6347 13.72L60.0497 12.805C60.3097 12.615 60.6597 12.425 61.0997 12.235C61.5397 12.045 62.0697 11.95 62.6897 11.95C63.4797 11.95 64.1197 12.135 64.6097 12.505C65.0997 12.865 65.3447 13.38 65.3447 14.05V19H64.1447V18.01C63.9347 18.38 63.6197 18.665 63.1997 18.865C62.7797 19.055 62.3097 19.15 61.7897 19.15C61.3597 19.15 60.9647 19.07 60.6047 18.91C60.2447 18.75 59.9547 18.515 59.7347 18.205C59.5247 17.885 59.4197 17.49 59.4197 17.02C59.4197 16.29 59.6797 15.725 60.1997 15.325C60.7297 14.915 61.4497 14.71 62.3597 14.71C62.7597 14.71 63.1097 14.76 63.4097 14.86C63.7097 14.96 63.9547 15.075 64.1447 15.205V14.05C64.1447 13.7 63.9947 13.44 63.6947 13.27C63.4047 13.09 63.0697 13 62.6897 13C62.1997 13 61.7747 13.09 61.4147 13.27C61.0647 13.45 60.8047 13.6 60.6347 13.72ZM60.6347 16.975C60.6347 17.345 60.7747 17.625 61.0547 17.815C61.3447 17.995 61.6897 18.085 62.0897 18.085C62.6897 18.085 63.1797 17.95 63.5597 17.68C63.9497 17.4 64.1447 16.94 64.1447 16.3V16.03C63.6347 15.76 63.0597 15.625 62.4197 15.625C61.8097 15.625 61.3597 15.745 61.0697 15.985C60.7797 16.225 60.6347 16.555 60.6347 16.975Z" fill="#BB8C5F"/>
</svg>
