<svg width="69" height="29" viewBox="0 0 69 29" fill="none" xmlns="http://www.w3.org/2000/svg">
<path d="M58.5884 14.7839L68.0478 28.5H0.5V0.5H68.0478L58.5884 14.2161L58.3926 14.5L58.5884 14.7839Z" fill="#F5F5F5" stroke="#5FBBA3"/>
<path d="M18.4 19L17.065 15.85H12.835L11.5 19H10.075L14.95 7.975L19.825 19H18.4ZM14.95 10.87L13.345 14.65H16.555L14.95 10.87ZM20.9523 12.1H22.1523V14.515L24.7023 12.1H26.2023L23.2023 14.95L26.5023 19H25.0023L22.1523 15.505V19H20.9523V12.1ZM33.2588 17.875H34.4588V20.35H33.4088V19H27.6338V12.1H28.8338V17.875H32.0588V12.1H33.2588V17.875ZM37.3902 12.1V16.57L41.9652 11.575V19H40.7652V14.53L36.1902 19.525V12.1H37.3902ZM45.2791 19H43.9591L45.9691 16.165C45.4691 16.065 45.0641 15.855 44.7541 15.535C44.4441 15.215 44.2891 14.76 44.2891 14.17C44.2891 13.67 44.3991 13.27 44.6191 12.97C44.8391 12.67 45.1391 12.45 45.5191 12.31C45.9091 12.17 46.3391 12.1 46.8091 12.1H49.6591V19H48.4591V16.24H47.2291L45.2791 19ZM46.8091 15.19H48.4591V13.15H46.8091C45.9291 13.15 45.4891 13.49 45.4891 14.17C45.4891 14.85 45.9291 15.19 46.8091 15.19Z" fill="#5FBBA3"/>
</svg>
