<svg width="24" height="23" viewBox="0 0 24 23" fill="none" xmlns="http://www.w3.org/2000/svg">
<path d="M17.3196 8.91077C17.2294 8.17612 17.0041 7.59928 16.6041 7.08833C16.0847 6.43041 15.421 6.03644 14.4383 5.80273C13.7979 5.64696 13.5391 5.66484 13.3075 5.87694C13.0917 6.07566 13.0496 6.47403 13.2145 6.73201C13.3304 6.91925 13.4642 6.98633 13.8362 7.05954C14.3317 7.15092 14.674 7.26951 14.9855 7.44803C15.6465 7.83068 15.9543 8.42946 15.9873 9.39886C16.0027 9.85402 16.0419 9.99396 16.2005 10.1554C16.4944 10.4505 17.0175 10.3931 17.2394 10.04C17.3208 9.90686 17.3332 9.84893 17.3418 9.53986C17.3475 9.34851 17.3393 9.0637 17.3196 8.91077Z" fill="#BB8C5F"/>
<path d="M19.9087 9.73932C19.7781 7.48858 18.9 5.67775 17.3283 4.40368C16.4429 3.68778 15.3725 3.19551 14.1993 2.95611C13.7695 2.87049 12.9782 2.80109 12.8425 2.84079C12.7144 2.87755 12.5332 3.0166 12.4525 3.14234C12.3671 3.2787 12.3478 3.58316 12.4206 3.75927C12.5382 4.05367 12.757 4.15768 13.3696 4.21141C14.314 4.29424 15.288 4.62686 16.024 5.11928C16.8642 5.67995 17.5322 6.4468 17.9643 7.34793C18.3376 8.12218 18.5672 9.23797 18.5608 10.2371C18.5587 10.5985 18.6144 10.8026 18.7594 10.9518C18.9782 11.1812 19.2971 11.2314 19.5786 11.079C19.8906 10.9145 19.9636 10.6258 19.9087 9.73932Z" fill="#BB8C5F"/>
<path d="M22.7737 18.4066C22.7298 18.278 22.6273 18.0795 22.5541 17.9656C22.0929 17.2674 19.6149 15.3233 18.3777 14.6875C17.6713 14.3237 17.1479 14.2025 16.7599 14.3163C16.3426 14.434 16.123 14.6287 15.4239 15.4997C15.142 15.8488 14.8529 16.1759 14.776 16.2273C14.5857 16.3596 14.2123 16.4663 13.9488 16.4663C13.3375 16.4625 12.2284 16.0656 11.3756 15.5438C10.7131 15.1396 9.86393 14.4156 9.21236 13.699C8.44366 12.8574 7.92031 12.115 7.50665 11.2771C6.97227 10.2004 6.83684 9.54252 7.06009 9.06108C7.115 8.93982 7.18822 8.81123 7.22112 8.77075C7.25409 8.73405 7.59818 8.45104 7.9788 8.14233C8.72554 7.54702 8.84631 7.41104 8.9854 7.00311C9.16109 6.4849 9.11353 5.95571 8.84267 5.42286C8.63401 5.01859 8.08863 4.1366 7.69334 3.56699C7.16991 2.81732 5.86684 1.21502 5.60692 0.998129C5.13842 0.615967 4.53818 0.549776 3.87561 0.807079C3.17655 1.07903 1.86613 2.13742 1.30609 2.87611C0.800967 3.54494 0.607034 4.019 0.577721 4.64375C0.552117 5.15823 0.596025 5.37138 0.866892 6.02923C2.9862 11.1889 6.14865 15.3086 10.4935 18.5794C12.7628 20.2882 15.1164 21.5892 17.5578 22.4786C18.9816 22.9967 19.6003 23.0224 20.3286 22.5962C20.6361 22.4124 21.3975 21.6296 21.822 21.06C22.5248 20.1118 22.7847 19.6745 22.8579 19.3254C22.9092 19.0865 22.8689 18.6713 22.7737 18.4066Z" fill="#BB8C5F"/>
<path d="M22.5445 10.2554C22.4977 8.98228 22.2838 7.93799 21.838 6.77369C21.3978 5.62841 20.9523 4.88105 20.1109 3.87023C19.3155 2.92246 18.6977 2.38131 17.7178 1.77892C16.3507 0.939634 14.687 0.384224 12.8225 0.150641C12.1866 0.0690065 12.0428 0.074837 11.8477 0.205324C11.4697 0.452515 11.4747 1.06907 11.8539 1.31255C11.9794 1.39001 12.0908 1.41822 12.5994 1.48496C13.3802 1.59034 13.8823 1.68965 14.478 1.8526C16.814 2.49278 18.6105 3.80134 19.8115 5.74383C20.8165 7.36292 21.2337 8.98213 21.1745 11.0501C21.1539 11.7492 21.1689 11.8723 21.2755 12.0403C21.4796 12.3533 22.018 12.4153 22.2942 12.1555C22.466 11.9971 22.4984 11.8783 22.5323 11.2799C22.5485 10.9677 22.552 10.507 22.5445 10.2554Z" fill="#BB8C5F"/>
</svg>
