<svg width="25" height="25" viewBox="0 0 25 25" fill="none" xmlns="http://www.w3.org/2000/svg">
<path fill-rule="evenodd" clip-rule="evenodd" d="M24.4565 12.0443C24.4539 18.6 19.121 23.9342 12.564 23.9368H12.5591C10.5687 23.9361 8.61291 23.4368 6.87587 22.4893L0.571411 24.1431L2.25859 17.9804C1.21786 16.1768 0.670227 14.131 0.671119 12.0349C0.673728 5.47781 6.00876 0.143066 12.5639 0.143066C15.7453 0.144439 18.7313 1.38295 20.9766 3.63091C23.2219 5.87875 24.4578 8.86668 24.4565 12.0443ZM3.42682 21.3176L7.16797 20.3362L7.52892 20.5504C9.04657 21.451 10.7862 21.9276 12.56 21.9283H12.564C18.0121 21.9283 22.4464 17.4939 22.4485 12.0436C22.4496 9.40232 21.4224 6.91889 19.5561 5.05047C17.6899 3.18206 15.2081 2.1526 12.5679 2.15168C7.11552 2.15168 2.68122 6.58557 2.67906 12.0355C2.67829 13.9033 3.20089 15.7223 4.19036 17.296L4.42538 17.67L3.42682 21.3176Z" fill="#BB8C5F"/>
<path d="M18.3201 15.6156C18.2459 15.4917 18.0478 15.4173 17.7507 15.2685C17.4535 15.1198 15.9926 14.401 15.7201 14.3017C15.4478 14.2026 15.2496 14.1531 15.0515 14.4504C14.8535 14.7479 14.284 15.4173 14.1106 15.6156C13.9373 15.8139 13.7639 15.8388 13.4669 15.69C13.1697 15.5413 12.2122 15.2275 11.0772 14.2151C10.1938 13.4271 9.59744 12.454 9.4241 12.1565C9.25076 11.859 9.40562 11.6983 9.55438 11.5501C9.68808 11.4169 9.85156 11.2029 10.0001 11.0295C10.1487 10.856 10.1982 10.732 10.2973 10.5338C10.3963 10.3354 10.3468 10.1619 10.2725 10.0132C10.1982 9.86443 9.60394 8.40176 9.35632 7.80676C9.11509 7.22732 8.87012 7.30581 8.68773 7.29666C8.5146 7.28796 8.31628 7.28613 8.1182 7.28613C7.92012 7.28613 7.59816 7.36051 7.32579 7.65801C7.05342 7.95551 6.28577 8.67443 6.28577 10.137C6.28577 11.5997 7.35054 13.0127 7.49913 13.211C7.6477 13.4094 9.59449 16.4108 12.5754 17.6979C13.2844 18.0041 13.8379 18.1869 14.2695 18.3239C14.9813 18.5501 15.6291 18.5182 16.1411 18.4416C16.712 18.3563 17.8992 17.7228 18.1469 17.0287C18.3944 16.3345 18.3944 15.7395 18.3201 15.6156Z" fill="#BB8C5F"/>
</svg>
