<svg width="123" height="29" viewBox="0 0 123 29" fill="none" xmlns="http://www.w3.org/2000/svg">
<path d="M112.588 14.7839L122.048 28.5H0.5V0.5H122.048L112.588 14.2161L112.393 14.5L112.588 14.7839Z" fill="#F5F5F5" stroke="#636B78"/>
<path d="M11.2 8.5H12.475V12.7H18.25V8.5H19.525V19H18.25V13.9H12.475V19H11.2V8.5ZM27.8027 17.395C27.5727 17.745 27.3177 18.055 27.0377 18.325C26.7577 18.585 26.4177 18.79 26.0177 18.94C25.6177 19.08 25.1177 19.15 24.5177 19.15C23.8977 19.15 23.3377 18.995 22.8377 18.685C22.3477 18.375 21.9577 17.95 21.6677 17.41C21.3877 16.86 21.2477 16.24 21.2477 15.55C21.2477 15.42 21.2527 15.295 21.2627 15.175C21.2727 15.055 21.2877 14.935 21.3077 14.815C21.4077 14.245 21.6077 13.745 21.9077 13.315C22.2077 12.885 22.5927 12.55 23.0627 12.31C23.5427 12.07 24.0777 11.95 24.6677 11.95C25.3177 11.95 25.8877 12.095 26.3777 12.385C26.8677 12.675 27.2477 13.085 27.5177 13.615C27.7877 14.135 27.9227 14.76 27.9227 15.49C27.9227 15.55 27.9227 15.61 27.9227 15.67C27.9227 15.73 27.9177 15.79 27.9077 15.85H22.4777C22.5277 16.55 22.7477 17.09 23.1377 17.47C23.5277 17.84 24.0377 18.025 24.6677 18.025C25.1677 18.025 25.5927 17.91 25.9427 17.68C26.3027 17.45 26.5977 17.15 26.8277 16.78L27.8027 17.395ZM24.6677 13C24.1077 13 23.6227 13.165 23.2127 13.495C22.8027 13.815 22.5677 14.26 22.5077 14.83H26.6177C26.5577 14.29 26.3677 13.85 26.0477 13.51C25.7277 13.17 25.2677 13 24.6677 13ZM28.5174 12.1H32.5674V13.225H31.1424V19H29.9424V13.225H28.5174V12.1ZM38.2686 12.1H39.4686V14.8H43.2936V12.1H44.4936V19H43.2936V15.925H39.4686V19H38.2686V12.1ZM47.29 13.72L46.705 12.805C46.965 12.615 47.315 12.425 47.755 12.235C48.195 12.045 48.725 11.95 49.345 11.95C50.135 11.95 50.775 12.135 51.265 12.505C51.755 12.865 52 13.38 52 14.05V19H50.8V18.01C50.59 18.38 50.275 18.665 49.855 18.865C49.435 19.055 48.965 19.15 48.445 19.15C48.015 19.15 47.62 19.07 47.26 18.91C46.9 18.75 46.61 18.515 46.39 18.205C46.18 17.885 46.075 17.49 46.075 17.02C46.075 16.29 46.335 15.725 46.855 15.325C47.385 14.915 48.105 14.71 49.015 14.71C49.415 14.71 49.765 14.76 50.065 14.86C50.365 14.96 50.61 15.075 50.8 15.205V14.05C50.8 13.7 50.65 13.44 50.35 13.27C50.06 13.09 49.725 13 49.345 13C48.855 13 48.43 13.09 48.07 13.27C47.72 13.45 47.46 13.6 47.29 13.72ZM47.29 16.975C47.29 17.345 47.43 17.625 47.71 17.815C48 17.995 48.345 18.085 48.745 18.085C49.345 18.085 49.835 17.95 50.215 17.68C50.605 17.4 50.8 16.94 50.8 16.3V16.03C50.29 15.76 49.715 15.625 49.075 15.625C48.465 15.625 48.015 15.745 47.725 15.985C47.435 16.225 47.29 16.555 47.29 16.975ZM59.0673 15.55C59.0673 16.03 59.1673 16.455 59.3673 16.825C59.5773 17.195 59.8573 17.49 60.2073 17.71C60.5673 17.92 60.9723 18.025 61.4223 18.025C61.9823 18.025 62.4823 17.9 62.9223 17.65C63.3623 17.4 63.6623 17.105 63.8223 16.765V18.265C63.5823 18.545 63.2373 18.765 62.7873 18.925C62.3473 19.075 61.8923 19.15 61.4223 19.15C60.7523 19.15 60.1473 18.995 59.6073 18.685C59.0673 18.375 58.6373 17.95 58.3173 17.41C58.0073 16.86 57.8523 16.24 57.8523 15.55C57.8523 14.85 58.0073 14.23 58.3173 13.69C58.6373 13.15 59.0673 12.725 59.6073 12.415C60.1473 12.105 60.7523 11.95 61.4223 11.95C61.8923 11.95 62.3473 12.03 62.7873 12.19C63.2373 12.34 63.5823 12.555 63.8223 12.835V14.335C63.6623 13.995 63.3623 13.7 62.9223 13.45C62.4823 13.2 61.9823 13.075 61.4223 13.075C60.9723 13.075 60.5673 13.18 60.2073 13.39C59.8573 13.6 59.5773 13.895 59.3673 14.275C59.1673 14.645 59.0673 15.07 59.0673 15.55ZM65.6154 12.1H66.8154V14.515L69.3654 12.1H70.8654L67.8654 14.95L71.1654 19H69.6654L66.8154 15.505V19H65.6154V12.1ZM78.3419 12.1V19H77.1419V13.225H73.6169V16.6C73.6169 17.42 73.4269 18.025 73.0469 18.415C72.6769 18.805 72.1019 19 71.3219 19V17.905C71.6219 17.905 71.8769 17.81 72.0869 17.62C72.3069 17.43 72.4169 17.09 72.4169 16.6V12.1H78.3419ZM81.2011 13.72L80.6161 12.805C80.8761 12.615 81.2261 12.425 81.6661 12.235C82.1061 12.045 82.6361 11.95 83.2561 11.95C84.0461 11.95 84.6861 12.135 85.1761 12.505C85.6661 12.865 85.9111 13.38 85.9111 14.05V19H84.7111V18.01C84.5011 18.38 84.1861 18.665 83.7661 18.865C83.3461 19.055 82.8761 19.15 82.3561 19.15C81.9261 19.15 81.5311 19.07 81.1711 18.91C80.8111 18.75 80.5211 18.515 80.3011 18.205C80.0911 17.885 79.9861 17.49 79.9861 17.02C79.9861 16.29 80.2461 15.725 80.7661 15.325C81.2961 14.915 82.0161 14.71 82.9261 14.71C83.3261 14.71 83.6761 14.76 83.9761 14.86C84.2761 14.96 84.5211 15.075 84.7111 15.205V14.05C84.7111 13.7 84.5611 13.44 84.2611 13.27C83.9711 13.09 83.6361 13 83.2561 13C82.7661 13 82.3411 13.09 81.9811 13.27C81.6311 13.45 81.3711 13.6 81.2011 13.72ZM81.2011 16.975C81.2011 17.345 81.3411 17.625 81.6211 17.815C81.9111 17.995 82.2561 18.085 82.6561 18.085C83.2561 18.085 83.7461 17.95 84.1261 17.68C84.5161 17.4 84.7111 16.94 84.7111 16.3V16.03C84.2011 15.76 83.6261 15.625 82.9861 15.625C82.3761 15.625 81.9261 15.745 81.6361 15.985C81.3461 16.225 81.2011 16.555 81.2011 16.975ZM94.7664 19H88.6914V20.35H87.4164V17.875H88.6464L91.6914 11.575L94.7364 17.875H95.9664V20.35H94.7664V19ZM91.6914 14.17L89.9814 17.875H93.4014L91.6914 14.17ZM103.726 17.395C103.496 17.745 103.241 18.055 102.961 18.325C102.681 18.585 102.341 18.79 101.941 18.94C101.541 19.08 101.041 19.15 100.441 19.15C99.8205 19.15 99.2605 18.995 98.7605 18.685C98.2705 18.375 97.8805 17.95 97.5905 17.41C97.3105 16.86 97.1705 16.24 97.1705 15.55C97.1705 15.42 97.1755 15.295 97.1855 15.175C97.1955 15.055 97.2105 14.935 97.2305 14.815C97.3305 14.245 97.5305 13.745 97.8305 13.315C98.1305 12.885 98.5155 12.55 98.9855 12.31C99.4655 12.07 100.001 11.95 100.591 11.95C101.241 11.95 101.811 12.095 102.301 12.385C102.791 12.675 103.171 13.085 103.441 13.615C103.711 14.135 103.846 14.76 103.846 15.49C103.846 15.55 103.846 15.61 103.846 15.67C103.846 15.73 103.841 15.79 103.831 15.85H98.4005C98.4505 16.55 98.6705 17.09 99.0605 17.47C99.4505 17.84 99.9605 18.025 100.591 18.025C101.091 18.025 101.516 17.91 101.866 17.68C102.226 17.45 102.521 17.15 102.751 16.78L103.726 17.395ZM100.591 13C100.031 13 99.5455 13.165 99.1355 13.495C98.7255 13.815 98.4905 14.26 98.4305 14.83H102.541C102.481 14.29 102.291 13.85 101.971 13.51C101.651 13.17 101.191 13 100.591 13Z" fill="#636B78"/>
</svg>
