<svg width="8" height="13" viewBox="0 0 8 13" fill="none" xmlns="http://www.w3.org/2000/svg">
<path d="M6.052 3.57C6.052 2.83333 5.82533 2.26667 5.372 1.87C4.93 1.47333 4.32367 1.275 3.553 1.275C2.98633 1.275 2.499 1.40533 2.091 1.666C1.69433 1.91533 1.36567 2.25533 1.105 2.686L0 1.989C0.260667 1.59233 0.549667 1.24667 0.867 0.952C1.18433 0.646 1.56967 0.413666 2.023 0.255C2.48767 0.0849998 3.05433 0 3.723 0C4.437 0 5.07167 0.158667 5.627 0.476C6.18233 0.782 6.61867 1.207 6.936 1.751C7.26467 2.28367 7.429 2.89 7.429 3.57C7.429 4.216 7.259 4.80533 6.919 5.338C6.579 5.85933 6.137 6.28433 5.593 6.613C5.049 6.93033 4.45967 7.106 3.825 7.14L3.706 9.18H2.686L2.346 6.205H2.788C3.468 6.205 4.05167 6.07467 4.539 5.814C5.02633 5.55333 5.40033 5.22467 5.661 4.828C5.92167 4.42 6.052 4.00067 6.052 3.57ZM2.295 11.39C2.295 11.1293 2.38567 10.9083 2.567 10.727C2.75967 10.5457 2.98067 10.455 3.23 10.455C3.49067 10.455 3.71167 10.5457 3.893 10.727C4.07433 10.9083 4.165 11.1293 4.165 11.39C4.165 11.6393 4.07433 11.8603 3.893 12.053C3.71167 12.2343 3.49067 12.325 3.23 12.325C2.98067 12.325 2.75967 12.2343 2.567 12.053C2.38567 11.8603 2.295 11.6393 2.295 11.39Z" fill="#D0D0D0"/>
</svg>
